<svg xmlns="http://www.w3.org/2000/svg" xmlns:xlink="http://www.w3.org/1999/xlink" width="115" height="25" viewBox="0 0 115 25"><defs><path id="a" d="M173.54 13.78h6.88c.67 0 1.32.08 1.97.24.65.16 1.23.41 1.74.77.5.35.91.81 1.23 1.37.32.57.47 1.24.47 2.04 0 .99-.28 1.8-.84 2.45-.57.64-1.3 1.1-2.22 1.39v.05c1.11.15 2.03.58 2.74 1.29a3.84 3.84 0 0 1 1.07 2.85c0 .96-.19 1.76-.57 2.41a4.57 4.57 0 0 1-1.51 1.58c-.62.4-1.34.68-2.14.85-.81.18-1.63.26-2.46.26h-6.36zm3.14 7.14h2.8c1.04 0 1.84-.2 2.39-.62.55-.41.82-1 .82-1.76 0-.8-.28-1.35-.85-1.68a5.42 5.42 0 0 0-2.64-.5h-2.52zm0 7.78h2.82c.4 0 .83-.03 1.3-.08.46-.06.89-.18 1.28-.36a2.28 2.28 0 0 0 1.36-2.18c0-.93-.32-1.57-.95-1.94a5.91 5.91 0 0 0-2.87-.54h-2.94zm12.27-10a8.36 8.36 0 0 1 4.96-4.72c1.16-.43 2.42-.64 3.78-.64 1.38 0 2.66.21 3.82.64a8.28 8.28 0 0 1 5 4.72c.47 1.14.71 2.4.71 3.8 0 1.38-.24 2.63-.71 3.76a8.66 8.66 0 0 1-5 4.83 10.4 10.4 0 0 1-3.82.69c-1.36 0-2.62-.23-3.78-.69a8.75 8.75 0 0 1-4.96-4.83 9.62 9.62 0 0 1-.7-3.75c0-1.4.23-2.67.7-3.8zm3.14 6.4a5.72 5.72 0 0 0 5.62 3.88c.9 0 1.73-.17 2.48-.49a5.69 5.69 0 0 0 3.18-3.4c.29-.78.43-1.64.43-2.58 0-.91-.14-1.75-.43-2.53-.3-.78-.7-1.45-1.24-2.03a5.72 5.72 0 0 0-1.92-1.37 6.11 6.11 0 0 0-2.5-.5 5.74 5.74 0 0 0-5.62 3.9c-.29.78-.43 1.62-.43 2.53 0 .94.14 1.8.43 2.59zm17.57-6.4a8.36 8.36 0 0 1 4.96-4.72c1.16-.43 2.42-.64 3.78-.64 1.38 0 2.66.21 3.82.64a8.28 8.28 0 0 1 5 4.72c.47 1.14.71 2.4.71 3.8 0 1.38-.24 2.63-.71 3.76a8.66 8.66 0 0 1-5 4.83 10.4 10.4 0 0 1-3.82.69c-1.36 0-2.62-.23-3.78-.69a8.75 8.75 0 0 1-4.96-4.83 9.62 9.62 0 0 1-.7-3.75c0-1.4.23-2.67.7-3.8zm3.14 6.4a5.72 5.72 0 0 0 5.62 3.88c.9 0 1.73-.17 2.48-.49a5.69 5.69 0 0 0 3.18-3.4c.29-.78.43-1.64.43-2.58 0-.91-.14-1.75-.43-2.53-.3-.78-.7-1.45-1.24-2.03a5.72 5.72 0 0 0-1.92-1.37 6.11 6.11 0 0 0-2.5-.5 5.74 5.74 0 0 0-5.62 3.9c-.29.78-.43 1.62-.43 2.53 0 .94.14 1.8.43 2.59zm17.77-11.32h3.14v7.59h.08l7.38-7.59h4.24l-8.26 8.1 8.81 9.45h-4.42l-7.75-8.8h-.08v8.8h-3.14z"/><path id="b" d="M164.9 29.7a1.9 1.9 0 0 0-1.88-1.92h-.25a1.9 1.9 0 0 0-1.88 1.92v.16a1.9 1.9 0 0 0 1.88 1.91h.25a1.9 1.9 0 0 0 1.88-1.91v-.16m-7.64-16.36c-.89 0-1.6.72-1.6 1.6V30.2c0 .87.71 1.58 1.6 1.58.9 0 1.62-.7 1.62-1.58V14.95c0-.88-.74-1.61-1.62-1.61m-3.57 16.13l-5.63-13.03a1.65 1.65 0 0 0-.31-.48l-.59-.4-.03-.02-7.65-5.25a1.69 1.69 0 0 0-1.74-.1c-.38.16-.7.44-.88.84l-6.54 13.91a2.47 2.47 0 0 0 .65 3.18l7.32 6.25a1.68 1.68 0 0 0 2.36-.18c.17-.18.3-.4.4-.62l.04-.07 5.34-12.38 4.17 9.67a1.68 1.68 0 0 0 3.09-1.32"/></defs><use fill="#fff" xlink:href="#a" transform="translate(-130 -10)"/><use fill="#fff" xlink:href="#b" transform="translate(-130 -10)"/></svg>