<svg xmlns="http://www.w3.org/2000/svg" xmlns:xlink="http://www.w3.org/1999/xlink" viewBox="0.1 0.02 166.65 48.05"><defs><path id="a" d="M709.57 35.5c.95 0 1.9.11 2.83.34.93.22 1.76.6 2.49 1.1a5.95 5.95 0 0 1 1.77 2c.46.81.68 1.8.68 2.94a5.2 5.2 0 0 1-1.21 3.55 6.78 6.78 0 0 1-3.2 2v.08c1.6.21 2.92.83 3.95 1.86a5.57 5.57 0 0 1 1.54 4.12c0 1.39-.28 2.55-.83 3.5a6.6 6.6 0 0 1-2.16 2.27c-.9.58-1.93.99-3.09 1.24s-2.33.38-3.53.38h-9.14V35.5zm-5.38 10.32h4.01c1.51 0 2.66-.3 3.44-.9a3 3 0 0 0 1.19-2.54c0-1.15-.4-1.96-1.22-2.44-.81-.48-2.08-.72-3.8-.72h-3.62zm0 11.25h4.05c.57 0 1.2-.04 1.86-.12a6.12 6.12 0 0 0 1.85-.52 3.62 3.62 0 0 0 1.4-1.15c.37-.5.55-1.17.55-2 0-1.34-.45-2.27-1.36-2.8-.9-.53-2.28-.79-4.12-.79h-4.23zm16.61-8.96c0-2.03.34-3.86 1.02-5.5a12.1 12.1 0 0 1 7.14-6.83c1.66-.62 3.47-.93 5.43-.93 1.98 0 3.8.31 5.48.93a11.97 11.97 0 0 1 7.19 6.83 14.2 14.2 0 0 1 1.02 5.5 14 14 0 0 1-1.02 5.43 12.52 12.52 0 0 1-7.2 7c-1.66.65-3.5.98-5.47.98-1.96 0-3.77-.33-5.43-.99a12.66 12.66 0 0 1-7.13-6.99 14 14 0 0 1-1.03-5.43zm4.91 0c0 1.37.21 2.61.63 3.75a8.72 8.72 0 0 0 1.8 2.96c.77.83 1.69 1.48 2.75 1.95a8.7 8.7 0 0 0 3.53.7c1.3 0 2.47-.23 3.55-.7 1.07-.47 2-1.12 2.78-1.95a8.73 8.73 0 0 0 1.79-2.96c.42-1.14.63-2.38.63-3.75 0-1.31-.21-2.53-.63-3.65a8.93 8.93 0 0 0-1.77-2.94 8.22 8.22 0 0 0-2.76-1.97 8.74 8.74 0 0 0-3.59-.72 8.25 8.25 0 0 0-6.3 2.69 8.9 8.9 0 0 0-1.78 2.94 10.4 10.4 0 0 0-.63 3.65zm24.85 0c0-2.03.34-3.86 1.03-5.5a12.1 12.1 0 0 1 7.13-6.83c1.66-.62 3.47-.93 5.43-.93 1.98 0 3.8.31 5.48.93a11.98 11.98 0 0 1 7.19 6.83 14.2 14.2 0 0 1 1.02 5.5 14 14 0 0 1-1.02 5.43 12.53 12.53 0 0 1-7.19 7c-1.67.65-3.5.98-5.48.98-1.96 0-3.77-.33-5.43-.99a12.66 12.66 0 0 1-7.13-6.99 14 14 0 0 1-1.03-5.43zm4.91 0c0 1.37.21 2.61.63 3.75a8.71 8.71 0 0 0 1.8 2.96c.77.83 1.69 1.48 2.75 1.95a8.7 8.7 0 0 0 3.53.7c1.3 0 2.48-.23 3.55-.7 1.08-.47 2-1.12 2.78-1.95a8.72 8.72 0 0 0 1.8-2.96c.4-1.14.62-2.38.62-3.75 0-1.31-.21-2.53-.63-3.65-.42-1.13-1-2.1-1.77-2.94a8.22 8.22 0 0 0-2.76-1.97 8.74 8.74 0 0 0-3.59-.72 8.25 8.25 0 0 0-6.3 2.69 8.9 8.9 0 0 0-1.78 2.94 10.4 10.4 0 0 0-.63 3.65zm26.16-12.61h4.52v10.97h.1l10.61-10.97h6.1l-11.87 11.72 12.66 13.66h-6.35l-11.15-12.73h-.1v12.73h-4.52z"/><path id="b" d="M687.26 58.52a2.74 2.74 0 0 0-2.7-2.78h-.36c-1.5 0-2.7 1.25-2.7 2.78v.22a2.74 2.74 0 0 0 2.7 2.78h.36c1.49 0 2.7-1.25 2.7-2.78zm-10.98-23.67a2.32 2.32 0 0 0-2.3 2.33v22.04a2.32 2.32 0 1 0 4.64 0V37.18a2.37 2.37 0 0 0-2.34-2.33zm-5.13 23.34l-8.08-18.85c-.12-.27-.28-.5-.46-.7l-.84-.58-.05-.02-11-7.59a2.4 2.4 0 0 0-2.5-.15c-.53.23-1 .64-1.26 1.21l-9.4 20.13a3.58 3.58 0 0 0 .94 4.59l10.52 9.04a2.4 2.4 0 0 0 3.4-.25c.23-.27.43-.58.58-.9l.05-.11 7.67-17.9 6 13.98a2.41 2.41 0 1 0 4.43-1.9z"/><path id="c" d="M710.9 74.2a9.3 9.3 0 0 1-2.3 1.9c1.5.67 3.15 1.03 5.01 1.12-.18.25-.28.47-.37.81a16.6 16.6 0 0 1-2.9-.53c-.9-.23-1.66-.54-2.49-.97a16.2 16.2 0 0 1-5.17 1.54c-.13-.34-.22-.5-.44-.75 2.1-.24 3.32-.56 4.87-1.22a8.3 8.3 0 0 1-1.82-1.53c-.74.62-1.21.93-2.42 1.51-.17-.28-.28-.4-.54-.6a9.38 9.38 0 0 0 2.6-1.52c.51-.42.72-.64 1.21-1.3-.52-.05-.66-.18-.66-.6v-.97c0-.37-.01-.63-.06-.92h.85c-.05.27-.06.5-.06.84v.8c0 .12.02.16.14.2.16.03.55.06 1.25.06 1.3 0 1.83-.03 1.98-.11.2-.1.28-.31.37-.92.22.18.42.28.68.35-.3 1.3-.36 1.33-2.77 1.33l-.88-.01c-.37.5-.47.6-.67.85h3.19c.57 0 .86-.01 1.12-.06l.48.5-.2.2zm-6.15-5.18a5.95 5.95 0 0 0-.53-1.1l-1.15.02c-.1-.32-.15-.43-.32-.7h.68c1.92 0 4.48-.15 6.22-.37 1.3-.15 2-.3 2.5-.5l.6.73c-.9.17-1.5.27-1.78.3l.72.21c-.48.87-.57 1.02-.82 1.41h1c.66 0 1.09 0 1.45-.05-.04.32-.06.58-.06.96v.74c0 .28.03.56.07.8h-.83V69.7h-9.22v1.8h-.83c.04-.28.06-.58.06-.9v-.7c0-.34-.01-.6-.05-.94.43.05.76.06 1.57.06zm-2 3.7a4.47 4.47 0 0 0 1.56-2.27l.66.32a7.03 7.03 0 0 1-1.64 2.51zm4.93-3.7a6.42 6.42 0 0 0-.56-1.23c-.94.05-1.63.09-2.18.1.22.36.37.65.57 1.13zm-1.82 5.17c.52.6 1.11 1.07 1.98 1.55.9-.5 1.4-.88 2.03-1.55zm2.7-2.6a7.83 7.83 0 0 0-1.64-1.25l.45-.47c.87.52 1.03.63 1.7 1.2zm1.52-2.56c.34-.5.59-.99.8-1.61-.98.14-1.73.22-3.02.32.28.53.41.83.56 1.29zm2.27 4.15a10.13 10.13 0 0 0-1.91-2.45l.57-.4c.9.91 1.32 1.4 1.97 2.36zm20.48-3.52a8.13 8.13 0 0 0 1.83 2.95c-.3.38-.32.42-.46.7a9.15 9.15 0 0 1-1.48-2.67c.04 1.18.05 1.65.05 2.07v3.87c0 .69.03 1.13.08 1.48h-.96c.05-.36.08-.82.08-1.48v-3.6c0-.54.01-.82.07-2.08-.42 1.6-1.03 2.9-1.88 4.04a2.36 2.36 0 0 0-.5-.74c.9-1 1.79-2.83 2.2-4.54h-.92a6 6 0 0 0-.92.05v-.8c.23.04.5.05.92.05h1.03v-1.22c0-.74-.02-1.03-.07-1.33h.93c-.05.3-.06.7-.06 1.31v1.24h.93c.36 0 .61-.01.84-.05v.79a8.9 8.9 0 0 0-.83-.04zM735 78c.04-.44.06-.9.06-1.56v-7.99c0-.44-.01-.75-.05-1.37.32.02.4.02 1 .02h3.77c.56 0 .7 0 .96-.04-.02.28-.03.58-.03 1.28v8.09c0 .7 0 1.18.05 1.51h-.86v-.86h-4.04V78zm.86-7.88h4.04v-2.28h-4.04zm0 3h4.04v-2.27h-4.04zm0 3.23h4.04v-2.5h-4.04zm23.66-8.34c-.43.63-.84 1.1-1.41 1.61a2.4 2.4 0 0 0-.61-.52 5.8 5.8 0 0 0 2.01-2.71l.8.23c-.16.34-.21.43-.4.75h2.15a6 6 0 0 0 1.08-.07v.74c-.33-.03-.42-.03-.98-.03h-1.03c.3.4.44.62.7 1.1l-.68.32a6.92 6.92 0 0 0-.8-1.42zm-1.6 3.86c.84.48 1.25.76 1.96 1.33l-.45.65c-.72-.63-1.2-.99-1.93-1.4zm2.34 2.99c-.42.8-.69 1.26-1.08 1.89l-.7.95c-.1.17-.1.17-.18.27l-.64-.66a9.97 9.97 0 0 0 2.08-2.98zm-1.53-5.1c.7.45 1.1.75 1.7 1.29l-.47.58a10.7 10.7 0 0 0-1.72-1.37zm2.96.64c-.46 0-.82.01-1.11.05v-.74c.3.05.66.08 1.12.08h2.4c-.02-.32-.04-.5-.08-.8h.83a5 5 0 0 0-.08.8h2.9c.45 0 .82-.03 1.15-.08v.74c-.3-.04-.67-.05-1.13-.05h-2.92v.66h2.37c.4 0 .65 0 .9-.03-.02.26-.03.52-.03.93v1.47c0 .41.01.68.04.92-.3-.02-.54-.04-.9-.04h-.38v.77h1.11a5 5 0 0 0 1.08-.08v.8c-.32-.05-.6-.06-1.07-.06h-1.12v1.3c0 .47-.14.74-.46.87-.15.06-.34.07-.88.07-.26 0-.67-.01-.99-.04-.06-.35-.1-.48-.24-.8.53.1.93.14 1.37.14.39 0 .49-.06.49-.3v-1.24h-4.59c-.44 0-.7.01-1 .06V75c.28.06.5.08 1.01.08h4.58v-.77h-4.08c-.36 0-.62.02-.89.04.03-.3.04-.4.04-.81v-1.62a10 10 0 0 0-.04-.9c.25.03.5.04.9.04h2.1v-.66zm1.5 7.2a7.3 7.3 0 0 0-1.58-1.3l.51-.46c.78.49 1.03.68 1.62 1.21zm-1.36-5.19h2.26v-.76h-2.26zm0 1.32h2.26v-.76h-2.26zm2.47-5.72c-.3.48-.52.76-1.02 1.3-.18-.2-.33-.31-.6-.45a4.98 4.98 0 0 0 1.53-2.46l.78.23c-.15.36-.2.46-.35.74h3.13c.54 0 .79-.01 1.12-.07v.77a6.56 6.56 0 0 0-1.1-.06h-1.85c.27.4.42.65.62 1.01l-.65.31a7.3 7.3 0 0 0-.7-1.32zm.47 4.4h2.52v-.76h-2.52zm0 1.32h2.52v-.76h-2.52zm2.28-5.25c.36.26.64.5 1 .85l-.52.4c-.33-.39-.6-.62-.99-.91z"/></defs><use fill="#766259" xlink:href="#a" transform="translate(-637 -30)"/><use fill="#71c3bc" xlink:href="#b" transform="translate(-637 -30)"/><use fill="#766259" xlink:href="#c" transform="translate(-637 -30)"/></svg>